<svg width="22" height="20" viewBox="0 0 22 20" fill="none" xmlns="http://www.w3.org/2000/svg">
<path d="M20.7026 10C20.7026 14.9706 16.6732 19 11.7026 19C10.5625 19 9.47189 18.788 8.46807 18.4013C8.28454 18.3306 8.19278 18.2952 8.1198 18.2784C8.04802 18.2619 7.99607 18.2549 7.92246 18.2521C7.84763 18.2493 7.76553 18.2577 7.60133 18.2747L2.17907 18.8352C1.66211 18.8887 1.40362 18.9154 1.25115 18.8224C1.11835 18.7414 1.02789 18.606 1.00381 18.4523C0.976169 18.2759 1.09969 18.0473 1.34672 17.59L3.07859 14.3844C3.22122 14.1204 3.29253 13.9884 3.32483 13.8615C3.35673 13.7361 3.36445 13.6457 3.35424 13.5168C3.34391 13.3862 3.28663 13.2163 3.17206 12.8764C2.86763 11.9732 2.70261 11.0059 2.70261 10C2.70261 5.02944 6.73205 1 11.7026 1C16.6732 1 20.7026 5.02944 20.7026 10Z" stroke="black" stroke-width="2" stroke-linecap="round" stroke-linejoin="round"/>
</svg>
