<svg width="21" height="22" viewBox="0 0 21 22" fill="none" xmlns="http://www.w3.org/2000/svg">
<path d="M12.3042 21H8.09372M16.5148 7.31579C16.5148 5.64074 15.8494 4.03429 14.6649 2.84985C13.4805 1.66541 11.874 1 10.199 1C8.52393 1 6.91748 1.66541 5.73304 2.84985C4.5486 4.03429 3.88319 5.64074 3.88319 7.31579C3.88319 10.5686 3.06263 12.7957 2.146 14.2689C1.3728 15.5114 0.986201 16.1327 1.00038 16.3061C1.01607 16.498 1.05673 16.5712 1.21138 16.6859C1.35104 16.7895 1.98066 16.7895 3.23988 16.7895H17.1581C18.4173 16.7895 19.0469 16.7895 19.1866 16.6859C19.3412 16.5712 19.3819 16.498 19.3976 16.3061C19.4118 16.1327 19.0252 15.5114 18.252 14.2689C17.3353 12.7957 16.5148 10.5686 16.5148 7.31579Z" stroke="black" stroke-width="2" stroke-linecap="round" stroke-linejoin="round"/>
</svg>
